<svg xmlns="http://www.w3.org/2000/svg" viewBox="0 0 100 100"><defs><style>.cls-1{fill:#355468;}.cls-2{fill:#1cd3b0;}.cls-3{fill:#1ac6a5;}.cls-4{fill:#6bb219;}.cls-5{fill:#68a519;}.cls-6{fill:#fff;}.cls-7{fill:#f7f7f7;}.cls-8{fill:#086b58;}.cls-9{fill:#8fc556;}.cls-10{fill:#3c6606;}.cls-11,.cls-12{fill:none;stroke:#07604f;}.cls-11{stroke-linecap:round;stroke-linejoin:round;}.cls-12{stroke-miterlimit:10;}.cls-13{fill:#07604f;}.cls-14{fill:#17c6a5;}</style></defs><title>04-crested-gecko-2</title><g id="Layer_2" data-name="Layer 2"><g id="Layer_2-2" data-name="Layer 2"><circle class="cls-1" cx="50" cy="50" r="50"/><path class="cls-2" d="M19.91,32.39a8.36,8.36,0,0,0-.84-2.84,9.92,9.92,0,0,0-3.94-3.43l-.36-.22A13.73,13.73,0,0,1,13,24.68,16.35,16.35,0,0,0,19.3,26.8a20,20,0,0,0,2.34.14,22,22,0,0,0,5.61-.75l.3-.09.2-.07a2.82,2.82,0,0,1-.22.93q-.08.22-.12.39A5.51,5.51,0,0,1,26,30a6.39,6.39,0,0,1-2,1.08A22.31,22.31,0,0,1,19.91,32.39Z"/><path class="cls-3" d="M27.08,26.75l0,.05-.14.42a5,5,0,0,1-1.23,2.44,6,6,0,0,1-1.88,1,25,25,0,0,1-3.49,1.16,8.06,8.06,0,0,0-.81-2.49A7.45,7.45,0,0,0,17.34,27a17.18,17.18,0,0,0,1.9.35,21,21,0,0,0,2.4.14,22.35,22.35,0,0,0,5.44-.69m-16.2-4.29c.47,1.75,2.08,2.93,3.63,3.87s3.25,1.87,4.12,3.46A8.68,8.68,0,0,1,19.48,33a21,21,0,0,0,4.7-1.4,6.75,6.75,0,0,0,2.18-1.17,6,6,0,0,0,1.53-2.91c.11-.42.47-1.18.36-1.61-.07-.28-.21-.37-.39-.37a3.76,3.76,0,0,0-.74.2,21.59,21.59,0,0,1-5.48.73,17.44,17.44,0,0,1-2.28-.14,15.08,15.08,0,0,1-8.48-3.84Z"/><path class="cls-2" d="M78.78,32.39a22.31,22.31,0,0,1-4.09-1.28,6.18,6.18,0,0,1-2-1.08,5.51,5.51,0,0,1-1.38-2.68c0-.11-.08-.24-.13-.39a3.23,3.23,0,0,1-.23-.93l.21.07.3.09a22.06,22.06,0,0,0,5.62.75h0a19.84,19.84,0,0,0,2.33-.14,16.45,16.45,0,0,0,6.29-2.12,13.83,13.83,0,0,1-1.76,1.22l-.36.22a9.92,9.92,0,0,0-3.94,3.43A8.14,8.14,0,0,0,78.78,32.39Z"/><path class="cls-3" d="M71.61,26.75a22.35,22.35,0,0,0,5.44.69,21.32,21.32,0,0,0,2.4-.14c.64-.09,1.28-.2,1.9-.35a7.34,7.34,0,0,0-2.17,2.36,7.8,7.8,0,0,0-.81,2.49,25.18,25.18,0,0,1-3.5-1.16,6.1,6.1,0,0,1-1.88-1,5.14,5.14,0,0,1-1.23-2.44,3.43,3.43,0,0,0-.14-.42v-.05M87.8,22.46a15,15,0,0,1-8.48,3.84,17.19,17.19,0,0,1-2.27.14,21.67,21.67,0,0,1-5.49-.73,3.76,3.76,0,0,0-.74-.2c-.17,0-.31.09-.38.37a4,4,0,0,0,.36,1.61,5.93,5.93,0,0,0,1.52,2.91,6.8,6.8,0,0,0,2.19,1.17A21.07,21.07,0,0,0,79.2,33a9.09,9.09,0,0,1,.85-3.18c.88-1.59,2.57-2.52,4.12-3.46s3.16-2.12,3.63-3.87Z"/><path class="cls-2" d="M44.24,58.82c-.64.46-1.73,0-2.42-.92s-.76-2.12-.12-2.58,1.72,0,2.42.92S44.87,58.36,44.24,58.82Zm14-.92c-.7,1-1.79,1.38-2.42.92s-.58-1.62.12-2.58,1.79-1.38,2.42-.92S59,56.93,58.25,57.9Z"/><path class="cls-2" d="M83.16,61.84a16.38,16.38,0,0,1-7.53,10.65c-3.39,2-7.41,2.68-10.78,4.67-2.55,1.5-3.28,2.54-5.57,4.41S52.93,84,50,84s-7-.6-9.3-2.45-3-2.91-5.57-4.41c-3.38-2-7.4-2.68-10.79-4.67a16.52,16.52,0,0,1-7.43-17.94A7.25,7.25,0,0,1,19.53,54c3.68-.52,6.69-3.59,7.76-7.15A15.6,15.6,0,0,0,26.16,36c-1-2.23-2.82-4-2.58-6.41,1-3.27,4.9-4.92,8.3-4.61a23.85,23.85,0,0,1,9.5,2.71,18.15,18.15,0,0,0,9.67,2,18.79,18.79,0,0,0,8.64-2.24,19.3,19.3,0,0,1,8.63-2.25c3.1-.17,6.54,1.53,7.3,4.54.24,2.45-1.76,4-2.8,6.24a15.23,15.23,0,0,0-1,10.73A10.81,10.81,0,0,0,80.08,54c.91.13,2.17-.08,3,.38A15.64,15.64,0,0,1,83.16,61.84Z"/><path class="cls-4" d="M15.16,50.7c-1.48-2.8-2.92-6.87-1.9-11.06a13.36,13.36,0,0,1,4.67-7.32,5.59,5.59,0,0,0,0,2,13.51,13.51,0,0,0,.86,2.77c.12.29.23.57.34.86a12.72,12.72,0,0,1,.53,7.48A8.29,8.29,0,0,1,15.16,50.7Z"/><path class="cls-5" d="M17.35,33.48a8.21,8.21,0,0,0,.09,1,13.92,13.92,0,0,0,.9,2.89c.11.28.22.56.32.84a12.13,12.13,0,0,1,.53,7.17A7.8,7.8,0,0,1,15.38,50c-1.36-2.7-2.57-6.45-1.63-10.28a13,13,0,0,1,3.6-6.28m1.86-2.6a13.48,13.48,0,0,0-6.43,8.64c-1,4,.13,8.15,2.15,11.81a8.7,8.7,0,0,0,5.23-5.73,13.2,13.2,0,0,0-.55-7.78,19.61,19.61,0,0,1-1.18-3.54,3.75,3.75,0,0,1,.78-3.4Z"/><path class="cls-6" d="M17.14,53.88c-.54-.76-1.05-1.53-1.49-2.3a9.24,9.24,0,0,0,5-5.85,13.55,13.55,0,0,0-.56-8.08c-.11-.3-.23-.59-.35-.89a12,12,0,0,1-.8-2.56,3.26,3.26,0,0,1,.59-2.93,10.61,10.61,0,0,1,3.54-1.13,8.54,8.54,0,0,0,1.6,4.18,19.1,19.1,0,0,1,1,1.88,15,15,0,0,1,1.11,10.49,9.48,9.48,0,0,1-7.35,6.81l-.64.07A7.53,7.53,0,0,0,17.14,53.88Z"/><path class="cls-7" d="M22.6,30.72a9.91,9.91,0,0,0,1.64,3.86,20.28,20.28,0,0,1,1,1.83,14.48,14.48,0,0,1,1.08,10.14A9,9,0,0,1,19.39,53l-.62.07a9.43,9.43,0,0,0-1.43.23c-.35-.5-.68-1-1-1.51a9.77,9.77,0,0,0,4.77-5.93,14,14,0,0,0-.58-8.39c-.11-.3-.22-.59-.34-.89a12.34,12.34,0,0,1-.78-2.47,3,3,0,0,1,.41-2.43,10.13,10.13,0,0,1,2.77-1m1-1.14a11,11,0,0,0-4.36,1.29h0a3.75,3.75,0,0,0-.78,3.4,19.61,19.61,0,0,0,1.18,3.54,13.2,13.2,0,0,1,.55,7.78,8.7,8.7,0,0,1-5.23,5.73,30.66,30.66,0,0,0,2,3.09.59.59,0,0,0,0,.13A7.25,7.25,0,0,1,19.53,54c3.68-.52,6.69-3.6,7.76-7.15A15.6,15.6,0,0,0,26.16,36c-1-2.24-2.82-4-2.58-6.41Z"/><path class="cls-6" d="M82.87,53.8a5.92,5.92,0,0,0-1.77-.21,7.08,7.08,0,0,1-.95-.05,10.25,10.25,0,0,1-7.81-7,14.77,14.77,0,0,1,.94-10.38,13.94,13.94,0,0,1,1.2-2,7.46,7.46,0,0,0,1.65-3.9,11.06,11.06,0,0,1,3.25,1A3.49,3.49,0,0,1,80,34.2a11.74,11.74,0,0,1-.81,2.57l-.34.87a13.43,13.43,0,0,0-.56,8.09c.69,2.54,3.47,4.83,5.94,5.86A21,21,0,0,1,82.87,53.8Z"/><path class="cls-7" d="M76.59,30.88a10.56,10.56,0,0,1,2.48.8,3.08,3.08,0,0,1,.45,2.44,12.46,12.46,0,0,1-.78,2.46c-.12.3-.24.59-.35.9a13.82,13.82,0,0,0-.57,8.38c.69,2.55,3.24,4.79,5.72,6-.27.46-.56.93-.88,1.39a8.25,8.25,0,0,0-1.55-.13,7.85,7.85,0,0,1-.89,0,9.88,9.88,0,0,1-7.4-6.61,14.29,14.29,0,0,1,.91-10,14.1,14.1,0,0,1,1.16-1.93,8.81,8.81,0,0,0,1.7-3.6m-1-1.13c.24,2.45-1.76,4-2.8,6.24a15.22,15.22,0,0,0-1,10.73A10.83,10.83,0,0,0,80.08,54c.91.13,2.17-.08,3,.38a20.45,20.45,0,0,0,1.89-3.09c-2.48-.88-5.46-3.19-6.15-5.73a13,13,0,0,1,.55-7.78,19.61,19.61,0,0,0,1.18-3.54,3.85,3.85,0,0,0-.84-3.42,11.08,11.08,0,0,0-4-1.11Z"/><path class="cls-4" d="M84.68,50.69c-2.25-.92-4.8-3-5.41-5.22A12.56,12.56,0,0,1,79.8,38l.33-.85A13.12,13.12,0,0,0,81,34.35a5.5,5.5,0,0,0,0-2.15,12.86,12.86,0,0,1,5,7.44A16.51,16.51,0,0,1,84.68,50.69Z"/><path class="cls-5" d="M81.59,33.33a12.5,12.5,0,0,1,3.85,6.43,15.93,15.93,0,0,1-1,10.28c-2-1-4.17-2.82-4.68-4.71a12.13,12.13,0,0,1,.52-7.17l.33-.84a13.92,13.92,0,0,0,.9-2.89,7.09,7.09,0,0,0,.09-1.1m-1.92-2.47a3.85,3.85,0,0,1,.84,3.42,19.61,19.61,0,0,1-1.18,3.54,13,13,0,0,0-.55,7.78c.69,2.54,3.67,4.85,6.15,5.73a17.21,17.21,0,0,0,1.48-11.81,13,13,0,0,0-6.74-8.66Z"/><path class="cls-8" d="M78.31,59.8C76.45,60,74.69,61,73,61.86a50.78,50.78,0,0,1-45.93,0c-1.84-.93-3.74-2.06-5.77-2.07a17.71,17.71,0,0,1,4.22.56c6.62,1.43,14.29,2.85,21.19,4.27a15.53,15.53,0,0,0,6.26,0c7-1.43,14.89-2.84,21.5-4.27A20.1,20.1,0,0,1,78.31,59.8Z"/><path class="cls-9" d="M21,59.8h.34"/><path class="cls-9" d="M78.31,59.8c.26,0,.53,0,.8,0"/><path class="cls-10" d="M44.12,56.24c-.7-1-1.79-1.38-2.42-.92s-.58,1.61.12,2.58,1.78,1.38,2.42.92S44.82,57.2,44.12,56.24Z"/><path class="cls-10" d="M58.37,55.32c-.63-.46-1.72,0-2.42.92s-.76,2.12-.12,2.58,1.72,0,2.42-.92S59,55.78,58.37,55.32Z"/><path class="cls-11" d="M17,61.63a4.88,4.88,0,0,1,3.89-1.82l.39,0h0"/><path class="cls-11" d="M78.31,59.8l.81,0A5,5,0,0,1,83,61.65"/><path class="cls-12" d="M78.31,59.8C76.45,60,74.69,61,73,61.86a50.78,50.78,0,0,1-45.93,0c-1.84-.93-3.74-2.06-5.77-2.07a17.71,17.71,0,0,1,4.22.56c6.62,1.43,14.29,2.85,21.19,4.27a15.53,15.53,0,0,0,6.26,0c7-1.43,14.89-2.84,21.5-4.27A20.1,20.1,0,0,1,78.31,59.8Z"/><polygon class="cls-8" points="24.13 30.77 26.35 30.49 25.18 32.34 24.13 30.77"/><path class="cls-13" d="M26.1,30.65l-.92,1.46-.83-1.24,1.75-.22m.5-.31-2.69.33,1.28,1.9,1.41-2.23Z"/><polygon class="cls-8" points="25.12 32.45 27.35 32.32 26.07 34.09 25.12 32.45"/><path class="cls-13" d="M27.09,32.46l-1,1.4-.75-1.29,1.76-.11m.52-.28-2.7.16,1.15,2,1.55-2.14Z"/><polygon class="cls-8" points="26.1 33.95 28.33 34.08 26.84 35.69 26.1 33.95"/><path class="cls-13" d="M26.29,34.08l1.77.11-1.18,1.27-.59-1.38m-.38-.27.89,2.1L28.6,34l-2.69-.17Z"/><polygon class="cls-8" points="26.94 35.62 29.16 35.81 27.64 37.37 26.94 35.62"/><path class="cls-13" d="M27.13,35.76l1.76.15-1.2,1.24-.56-1.39m-.39-.28.86,2.12,1.84-1.9-2.7-.22Z"/><polygon class="cls-8" points="27.77 37.46 29.91 38.08 28.11 39.31 27.77 37.46"/><path class="cls-13" d="M27.93,37.63l1.7.49-1.43,1-.27-1.47m-.32-.35L28,39.53,30.2,38l-2.59-.75Z"/><polygon class="cls-8" points="28.23 39.27 30.26 40.19 28.3 41.15 28.23 39.27"/><path class="cls-13" d="M28.36,39.46l1.61.73L28.42,41l-.06-1.5m-.27-.39.09,2.28,2.37-1.16-2.46-1.12Z"/><polygon class="cls-8" points="28.6 41.12 30.63 42.05 28.67 43.01 28.6 41.12"/><path class="cls-13" d="M28.73,41.32l1.61.73-1.55.76-.06-1.49m-.26-.4.08,2.29L30.93,42l-2.46-1.12Z"/><polygon class="cls-8" points="28.72 43.01 30.13 44 28.51 44.45 28.72 43.01"/><path class="cls-13" d="M28.82,43.23l1,.72-1.18.33.16-1.05m-.19-.44-.27,1.83,2.06-.57-1.79-1.26Z"/><polygon class="cls-8" points="28.66 44.36 29.77 45.68 28.09 45.7 28.66 44.36"/><path class="cls-13" d="M28.69,44.6l.81,1-1.22,0,.41-1m-.07-.47-.72,1.7,2.14,0-1.42-1.67Z"/><polygon class="cls-8" points="27.73 47.12 28.43 45.84 29.41 47.26 27.73 47.12"/><path class="cls-13" d="M28.44,46.08l.71,1L27.93,47l.51-.93m0-.47-.89,1.62,2.13.18-1.24-1.8Z"/><polygon class="cls-8" points="27.34 48.32 28.16 47.12 28.99 48.63 27.34 48.32"/><path class="cls-13" d="M28.15,47.36l.6,1.1-1.2-.23.6-.87m0-.48-1.05,1.53,2.11.39-1.06-1.92Z"/><polygon class="cls-8" points="26.86 49.12 27.66 48.21 28.2 49.54 26.86 49.12"/><path class="cls-13" d="M27.62,48.44l.36.9-.9-.28.54-.62m.09-.47-1.07,1.21,1.77.56L27.71,48Z"/><polygon class="cls-8" points="26.55 49.9 27.3 49.22 27.62 50.37 26.55 49.9"/><path class="cls-13" d="M27.23,49.45l.2.7-.65-.28.45-.42m.13-.46-1,.95,1.49.65L27.36,49Z"/><polygon class="cls-8" points="26 50.34 26.85 49.8 26.96 50.99 26 50.34"/><path class="cls-13" d="M26.75,50l.06.73-.59-.4.53-.33m.21-.42-1.19.74,1.34.91L27,49.59Z"/><polygon class="cls-8" points="25.79 50.86 26.41 50.48 26.49 51.34 25.79 50.86"/><path class="cls-13" d="M26.3,50.69l0,.4L26,50.87l.28-.18m.21-.43-1,.6,1.08.73-.13-1.33Z"/><polygon class="cls-8" points="72.57 30.49 74.78 30.77 73.73 32.34 72.57 30.49"/><path class="cls-13" d="M72.81,30.65l1.76.22-.84,1.24-.92-1.46m-.49-.31,1.41,2.23L75,30.67l-2.68-.33Z"/><polygon class="cls-8" points="71.56 32.32 73.8 32.45 72.85 34.09 71.56 32.32"/><path class="cls-13" d="M71.82,32.46l1.77.11-.75,1.29-1-1.4m-.51-.28,1.55,2.14,1.15-2-2.7-.16Z"/><polygon class="cls-8" points="70.58 34.08 72.81 33.95 72.07 35.69 70.58 34.08"/><path class="cls-13" d="M72.62,34.08,72,35.46l-1.17-1.27,1.76-.11m.39-.27-2.7.17,1.8,1.93.9-2.1Z"/><polygon class="cls-8" points="69.75 35.81 71.98 35.62 71.27 37.37 69.75 35.81"/><path class="cls-13" d="M71.79,35.76l-.56,1.39L70,35.91l1.77-.15m.38-.28-2.69.22,1.84,1.9.85-2.12Z"/><polygon class="cls-8" points="69 38.08 71.15 37.46 70.8 39.31 69 38.08"/><path class="cls-13" d="M71,37.63l-.28,1.47-1.42-1,1.7-.49m.32-.35-2.6.75,2.18,1.5.42-2.25Z"/><polygon class="cls-8" points="68.65 40.19 70.69 39.27 70.62 41.15 68.65 40.19"/><path class="cls-13" d="M70.56,39.46,70.5,41,69,40.19l1.61-.73m.26-.39-2.46,1.12,2.37,1.16.09-2.28Z"/><polygon class="cls-8" points="68.28 42.05 70.32 41.12 70.24 43.01 68.28 42.05"/><path class="cls-13" d="M70.18,41.32l-.05,1.49-1.56-.76,1.61-.73m.27-.4L68,42l2.37,1.17.09-2.29Z"/><polygon class="cls-8" points="68.78 44 70.19 43.01 70.41 44.45 68.78 44"/><path class="cls-13" d="M70.1,43.23l.15,1.05L69.07,44l1-.72m.18-.44-1.79,1.26,2.07.57-.28-1.83Z"/><polygon class="cls-8" points="69.14 45.68 70.26 44.36 70.83 45.7 69.14 45.68"/><path class="cls-13" d="M70.22,44.6l.42,1-1.23,0,.81-1m.08-.47L68.88,45.8l2.14,0-.72-1.7Z"/><polygon class="cls-8" points="70.49 45.84 71.19 47.12 69.51 47.26 70.49 45.84"/><path class="cls-13" d="M70.48,46.08,71,47l-1.23.11.72-1m0-.47-1.24,1.8,2.13-.18-.89-1.62Z"/><polygon class="cls-8" points="70.75 47.12 71.58 48.32 69.92 48.63 70.75 47.12"/><path class="cls-13" d="M70.77,47.36l.6.87-1.21.23.61-1.1m0-.48-1,1.92,2.1-.39-1.05-1.53Z"/><polygon class="cls-8" points="71.25 48.21 72.06 49.12 70.72 49.54 71.25 48.21"/><path class="cls-13" d="M71.29,48.44l.55.62-.91.28.36-.9M71.21,48l-.71,1.77,1.78-.56L71.21,48Z"/><polygon class="cls-8" points="71.62 49.22 72.36 49.9 71.3 50.37 71.62 49.22"/><path class="cls-13" d="M71.68,49.45l.46.42-.65.28.19-.7M71.55,49l-.45,1.6,1.49-.65-1-.95Z"/><polygon class="cls-8" points="72.06 49.8 72.92 50.34 71.95 50.99 72.06 49.8"/><path class="cls-13" d="M72.17,50l.52.33-.59.4.07-.73M72,49.59l-.16,1.65,1.35-.91L72,49.59Z"/><polygon class="cls-8" points="72.51 50.48 73.13 50.86 72.43 51.34 72.51 50.48"/><path class="cls-13" d="M72.61,50.69l.29.18-.32.22,0-.4m-.21-.43-.12,1.33,1.08-.73-1-.6Z"/><path class="cls-14" d="M57.42,29c-1.63.75-2.39,2.68-2.52,4.47s.18,3.61,0,5.39c-.31,2.44-1.71,6.69-3.71,8.85a2,2,0,0,1-2.89,0c-2-2.16-3.4-6.41-3.71-8.85-.23-1.78.09-3.6,0-5.39S43.61,29.74,42,29a27.28,27.28,0,0,0,3.7.76,34.65,34.65,0,0,0,4.77.43,17.2,17.2,0,0,0,2.27,0,11.67,11.67,0,0,0,1.73-.39C55.38,29.52,56.47,29.25,57.42,29Z"/><path class="cls-3" d="M31.07,25.93a5.69,5.69,0,0,1,.72,0,22.78,22.78,0,0,1,9.11,2.59,18.53,18.53,0,0,0,9,2.17l1.19,0a19.63,19.63,0,0,0,9.08-2.36,17.92,17.92,0,0,1,8.2-2.13h.37c2.37,0,5.22,1.3,5.88,3.72.09,1.24-.6,2.26-1.4,3.44a15.74,15.74,0,0,0-1.32,2.21A16.31,16.31,0,0,0,70.9,47a11.87,11.87,0,0,0,9,8,8.56,8.56,0,0,0,1.13.06,7.8,7.8,0,0,1,1.13.08,14.78,14.78,0,0,1,0,6.45,15.47,15.47,0,0,1-7.06,10,31.33,31.33,0,0,1-5.21,2.24,32.63,32.63,0,0,0-5.58,2.43,21.33,21.33,0,0,0-3.85,2.9c-.54.49-1.11,1-1.84,1.59C56.63,82.42,52.84,83,50,83s-6.66-.6-8.67-2.23c-.74-.6-1.3-1.1-1.85-1.59a21.22,21.22,0,0,0-3.84-2.9A32.24,32.24,0,0,0,30,73.88a30.89,30.89,0,0,1-5.2-2.25,15.55,15.55,0,0,1-7.09-16.36A6.17,6.17,0,0,1,19,55.06l.7-.08a11,11,0,0,0,8.58-7.86,16.46,16.46,0,0,0-1.19-11.54,20.51,20.51,0,0,0-1.11-2c-.79-1.31-1.47-2.44-1.38-3.77.89-2.64,4-3.85,6.5-3.85m0-1c-3.19,0-6.54,1.64-7.49,4.65C23.34,32,25.13,33.76,26.16,36a15.6,15.6,0,0,1,1.13,10.85c-1.07,3.56-4.08,6.63-7.76,7.15a7.25,7.25,0,0,0-2.64.56,16.52,16.52,0,0,0,7.43,17.94c3.39,2,7.41,2.68,10.79,4.67,2.54,1.5,3.28,2.54,5.57,4.41S47,84,50,84s7-.6,9.3-2.45,3-2.91,5.57-4.41c3.37-2,7.39-2.68,10.78-4.67a16.38,16.38,0,0,0,7.53-10.65A15.64,15.64,0,0,0,83,54.42c-.79-.46-2.05-.25-3-.38a10.81,10.81,0,0,1-8.22-7.32,15.23,15.23,0,0,1,1-10.73c1-2.23,3-3.79,2.8-6.24-.72-2.87-3.89-4.55-6.88-4.55h-.42a19.3,19.3,0,0,0-8.63,2.25,18.79,18.79,0,0,1-8.64,2.24q-.57,0-1.14,0a17.64,17.64,0,0,1-8.53-2.05A23.85,23.85,0,0,0,31.88,25c-.27,0-.54,0-.81,0Z"/></g></g></svg>