<svg xmlns="http://www.w3.org/2000/svg" viewBox="0 0 100 100"><defs><style>.cls-1{fill:#bae2f7;}.cls-2{fill:#49535b;}.cls-3{fill:#363e44;}.cls-4{fill:#8fc556;}.cls-5{fill:#76a341;}.cls-6{fill:#fff;}.cls-7{fill:#3f5b1e;stroke:#3f5b1e;stroke-miterlimit:10;}</style></defs><title>02-turtle</title><g id="Layer_2" data-name="Layer 2"><g id="Layer_2-2" data-name="Layer 2"><g id="_02-turtle" data-name="02-turtle"><circle class="cls-1" cx="50" cy="50" r="50"/><path class="cls-2" d="M69.92,44.59a5.37,5.37,0,0,1-4.51-2.42,17.79,17.79,0,0,0-9.94-7.48,21.23,21.23,0,0,0-6.37-1,22.12,22.12,0,0,0-12,3.52A16.85,16.85,0,0,0,32.29,42a5.32,5.32,0,0,1-4.49,2.37,5.71,5.71,0,0,1-2.23-.46L20,41.48A30.26,30.26,0,0,1,35.34,18.55a28,28,0,0,1,13.27-3.28A30.71,30.71,0,0,1,63,18.88c8.35,4.45,13.92,12.43,15.71,22.47L72,44.17A5.43,5.43,0,0,1,69.92,44.59Z"/><path class="cls-3" d="M48.61,14.77v1a30.17,30.17,0,0,1,14.15,3.55c8.11,4.32,13.55,12,15.39,21.73l-6.33,2.66a5,5,0,0,1-1.9.38,4.85,4.85,0,0,1-4.09-2.2,18.25,18.25,0,0,0-10.21-7.68,21.86,21.86,0,0,0-6.52-1,22.68,22.68,0,0,0-12.26,3.6,17.47,17.47,0,0,0-5,4.86,4.8,4.8,0,0,1-4.06,2.14,5.15,5.15,0,0,1-2-.42l-5.25-2.24A29.81,29.81,0,0,1,35.58,19a27.42,27.42,0,0,1,13-3.22v-1m0,0A28.48,28.48,0,0,0,35.1,18.11,30.58,30.58,0,0,0,19.44,41.8l5.93,2.53a6.34,6.34,0,0,0,2.44.5,5.83,5.83,0,0,0,4.9-2.59,16.3,16.3,0,0,1,4.68-4.57A21.53,21.53,0,0,1,49.1,34.23a20.8,20.8,0,0,1,6.22.94A17.23,17.23,0,0,1,65,42.44a5.92,5.92,0,0,0,7.22,2.19l7.06-3c-1.7-10.14-7.34-18.58-16-23.22a31.17,31.17,0,0,0-14.62-3.67Z"/><path class="cls-4" d="M48.93,84.24c-14.43,0-23-11.6-23.1-11.72l-.11-.15-.19,0a31.32,31.32,0,0,1-9.83-3.85,17.37,17.37,0,0,1-6.86-7.73,12,12,0,0,1,.11-10c1.52-3,5.06-5.81,10.5-8.37l5.73,2.44a6.54,6.54,0,0,0,2.62.54,6.29,6.29,0,0,0,5.33-2.82,15.88,15.88,0,0,1,4.54-4.43A21.13,21.13,0,0,1,49.1,34.73a20.2,20.2,0,0,1,6.07.92,16.77,16.77,0,0,1,9.4,7.06,6.36,6.36,0,0,0,5.35,2.88,6.51,6.51,0,0,0,2.49-.5l6.85-2.88c3.2,1.5,8.63,4.53,10.66,8.51a12,12,0,0,1,.1,10,17.25,17.25,0,0,1-6.86,7.73,31.22,31.22,0,0,1-9.83,3.85l-.17,0-.11.13C73,72.62,63.37,84.24,48.93,84.24Z"/><path class="cls-5" d="M49.1,35.23a19.83,19.83,0,0,1,5.92.89A16.29,16.29,0,0,1,64.15,43a6.91,6.91,0,0,0,8.45,2.57l6.65-2.8c3.16,1.51,8.3,4.43,10.22,8.2a11.54,11.54,0,0,1,.09,9.61,16.93,16.93,0,0,1-6.67,7.49,30.54,30.54,0,0,1-9.67,3.79l-.34.08-.22.27c-.09.11-9.54,11.55-23.73,11.55s-22.62-11.4-22.7-11.51l-.22-.3-.36-.09A30.61,30.61,0,0,1,16,68.05,17,17,0,0,1,9.3,60.56,11.54,11.54,0,0,1,9.39,51c1.46-2.86,4.85-5.57,10.07-8.06L25,45.25a7.24,7.24,0,0,0,2.83.58,6.82,6.82,0,0,0,5.74-3,15.35,15.35,0,0,1,4.39-4.28A20.61,20.61,0,0,1,49.1,35.23m0-1a21.53,21.53,0,0,0-11.71,3.44,16.3,16.3,0,0,0-4.68,4.57,5.83,5.83,0,0,1-4.9,2.59,6.34,6.34,0,0,1-2.44-.5L19.44,41.8c-4,1.86-8.94,4.77-10.94,8.7A12.54,12.54,0,0,0,8.38,61a18,18,0,0,0,7,8,31.84,31.84,0,0,0,10,3.92s8.66,11.92,23.51,11.92S73.44,72.82,73.44,72.82a31.84,31.84,0,0,0,10-3.92,18,18,0,0,0,7-8,12.54,12.54,0,0,0-.12-10.45c-2-3.93-7.09-7-11.09-8.84l-7.06,3A5.92,5.92,0,0,1,65,42.44a17.23,17.23,0,0,0-9.67-7.27,20.8,20.8,0,0,0-6.22-.94Z"/><ellipse class="cls-6" cx="33.07" cy="30.51" rx="3.83" ry="2.78" transform="translate(-0.59 60.37) rotate(-84.27)"/><ellipse class="cls-7" cx="43" cy="48.27" rx="3.37" ry="2.45" transform="translate(-6.77 89.51) rotate(-87.95)"/><ellipse class="cls-7" cx="55.46" cy="48.27" rx="3.37" ry="2.45" transform="translate(5.25 101.97) rotate(-87.95)"/><ellipse class="cls-6" cx="65.44" cy="30.51" rx="2.78" ry="3.83" transform="translate(-2.72 6.68) rotate(-5.73)"/><path class="cls-7" d="M84.12,54.37a2.63,2.63,0,0,0-3.49-.94,69.07,69.07,0,0,1-61.95,0,2.63,2.63,0,0,0-3.49.94,2.56,2.56,0,0,0,1.29,3.46,74.22,74.22,0,0,0,16.79,6l1.3.38a74.52,74.52,0,0,0,8.16,2.22,36.24,36.24,0,0,0,19.71-1.87,74.14,74.14,0,0,0,20.39-6.74A2.56,2.56,0,0,0,84.12,54.37Z"/></g></g></g></svg>