<svg xmlns="http://www.w3.org/2000/svg" viewBox="0 0 100 100"><defs><style>.cls-1{fill:#5fbd5f;}.cls-2{fill:#006837;}.cls-3{fill:#603813;}.cls-4{fill:#c69c6d;}.cls-5{fill:#b5885b;}.cls-6{fill:#fff;stroke:#ededed;stroke-miterlimit:10;}.cls-7{fill:#633f23;}</style></defs><title>03-tortoise</title><g id="Layer_2" data-name="Layer 2"><g id="Layer_2-2" data-name="Layer 2"><g id="_03-tortoise" data-name="03-tortoise"><circle class="cls-1" cx="50" cy="50" r="50"/><path class="cls-2" d="M32.49,36.07a26.33,26.33,0,0,1,4.94-16,16.55,16.55,0,0,1,11.21-6.69,13.91,13.91,0,0,1,9.87,2.5c4.8,3.44,8.3,10.57,9,18.38"/><path class="cls-3" d="M32.74,36.07C32.66,28.13,36,19.28,43.27,15.34a14.69,14.69,0,0,1,11.35-1.15,16.11,16.11,0,0,1,8.52,7.2,29.91,29.91,0,0,1,4.12,12.87c0,.31.53.32.5,0-.73-7.6-4.11-16.65-11.57-20-7.7-3.46-16.14.74-20.25,7.57a27.23,27.23,0,0,0-3.7,14.24c0,.32.51.32.5,0Z"/><path class="cls-4" d="M50.65,82.21c-11.15-1.2-21-8.16-27.28-13.78a25.9,25.9,0,0,1-6.5-8.14,13.7,13.7,0,0,1-1-10A9.1,9.1,0,0,1,23.11,44l.62-.08-.21-.59a16.86,16.86,0,0,1,1.57-14.25,23.51,23.51,0,0,1,11.4-9.16C41,18.07,45.64,18,50.53,18H51c4.94,0,7.92,0,12.48,1.88a23.6,23.6,0,0,1,11.4,9.16A16.84,16.84,0,0,1,76.48,43.3l-.21.59.62.08a9.1,9.1,0,0,1,7.19,6.31,13.7,13.7,0,0,1-1,10,25.9,25.9,0,0,1-6.5,8.14C69.73,74.6,61.24,81.07,50.65,82.21Z"/><path class="cls-5" d="M50.79,18.51H51c4.89,0,7.84,0,12.3,1.85a23.2,23.2,0,0,1,11.17,9A16.36,16.36,0,0,1,76,43.14l-.43,1.17,1.25.16a8.56,8.56,0,0,1,6.77,6,13.17,13.17,0,0,1-.92,9.64,25.69,25.69,0,0,1-6.38,8c-6.84,6.11-15.22,12.5-25.65,13.65-11-1.21-20.72-8.09-26.95-13.65a25.6,25.6,0,0,1-6.38-8,13.14,13.14,0,0,1-.92-9.63,8.56,8.56,0,0,1,6.77-6l1.25-.16L24,43.14a16.34,16.34,0,0,1,1.53-13.83,23,23,0,0,1,11.16-8.95c4.44-1.79,9-1.82,13.86-1.85h.25m0-1c-5.06,0-9.79,0-14.48,1.92a24,24,0,0,0-11.65,9.35,17.38,17.38,0,0,0-1.61,14.69,9.66,9.66,0,0,0-7.6,6.66,14.06,14.06,0,0,0,1,10.37A26.59,26.59,0,0,0,23,68.8c7.7,6.9,17.32,12.82,27.61,13.91C60.94,81.62,69.26,75.7,77,68.8a26.59,26.59,0,0,0,6.62-8.3,14.06,14.06,0,0,0,1-10.37A9.66,9.66,0,0,0,77,43.47a17.4,17.4,0,0,0-1.68-14.69,24.17,24.17,0,0,0-11.64-9.35c-4.7-1.89-7.78-1.89-12.84-1.92Z"/><ellipse class="cls-6" cx="33.61" cy="37.94" rx="2.76" ry="3.24" transform="translate(-6.35 6.76) rotate(-10.5)"/><ellipse class="cls-3" cx="33.61" cy="37.94" rx="1.17" ry="1.38" transform="translate(-6.35 6.76) rotate(-10.5)"/><ellipse class="cls-6" cx="66.42" cy="37.94" rx="3.24" ry="2.76" transform="translate(17.01 96.33) rotate(-79.5)"/><ellipse class="cls-3" cx="66.42" cy="37.94" rx="1.38" ry="1.17" transform="translate(17.01 96.33) rotate(-79.5)"/><ellipse class="cls-7" cx="47.25" cy="56.46" rx="2.42" ry="1.46" transform="translate(-23.92 75.3) rotate(-64.9)"/><ellipse class="cls-7" cx="54.14" cy="56.46" rx="1.46" ry="2.42" transform="translate(-18.84 28.3) rotate(-25.1)"/><path class="cls-7" d="M72.69,59.21c-3.3,4-9.1,2.6-13.61,3.5a14.76,14.76,0,0,0-8.29,4.95,14.79,14.79,0,0,0-8.3-4.95c-4.51-.9-10.31.5-13.6-3.5-1.15-1.38-3.11.6-2,2,2.48,3,6.33,3.62,10,3.81,5.11.26,9.57,1.12,12.64,5.62a1.42,1.42,0,0,0,2.41,0c3.07-4.5,7.54-5.36,12.65-5.62,3.69-.19,7.54-.8,10-3.81C75.79,59.81,73.83,57.83,72.69,59.21Z"/><polygon class="cls-5" points="52.37 18.32 50.37 44.77 48.37 18.32 52.37 18.32"/></g></g></g></svg>