<svg xmlns="http://www.w3.org/2000/svg" viewBox="0 0 100 100"><defs><style>.cls-1{fill:#a784b5;}.cls-2{fill:#d68f1d;}.cls-3{fill:#f7b71e;}.cls-4{fill:#e2a11b;}.cls-5{fill:#355468;}.cls-6{fill:#fff;}.cls-7{fill:#f7f7f7;}.cls-8{fill:#294554;}.cls-9{fill:none;stroke:#355468;stroke-miterlimit:10;}</style></defs><title>05-leopard-gecko</title><g id="Layer_2" data-name="Layer 2"><g id="Layer_2-2" data-name="Layer 2"><g id="_05-leopard-gecko" data-name="05-leopard-gecko"><circle class="cls-1" cx="50" cy="50" r="50"/><path class="cls-2" d="M44.24,58.82c-.64.46-1.73,0-2.42-.92s-.76-2.12-.12-2.58,1.72,0,2.42.92S44.87,58.36,44.24,58.82Zm14-.92c-.7,1-1.79,1.38-2.42.92s-.58-1.62.12-2.58,1.79-1.38,2.42-.92S59,56.93,58.25,57.9Z"/><path class="cls-3" d="M50,85.57c-1.66,0-4.11-2-6.08-3.65L43,81.18a27.72,27.72,0,0,0-5-3c-.88-.45-1.79-.92-2.66-1.43a32.32,32.32,0,0,0-5.49-2.38,31.52,31.52,0,0,1-5.3-2.29,16.06,16.06,0,0,1-7.26-17.17,5.35,5.35,0,0,1,1.61-.32l.68-.08A10.5,10.5,0,0,0,27.77,47a16,16,0,0,0-1.16-11.2,18.53,18.53,0,0,0-1.09-2c-.81-1.35-1.57-2.61-1.44-4.13.94-2.92,4.28-4.25,7-4.25.26,0,.51,0,.77,0a23.08,23.08,0,0,1,9.3,2.65,18,18,0,0,0,8.77,2.1l1.16,0a19.22,19.22,0,0,0,8.87-2.3,18.42,18.42,0,0,1,8.41-2.19h.4c2.65,0,5.69,1.43,6.38,4.17.13,1.38-.62,2.49-1.48,3.77a15.52,15.52,0,0,0-1.28,2.14,15.84,15.84,0,0,0-1,11.09A11.33,11.33,0,0,0,80,54.53a7.51,7.51,0,0,0,1.07.06,4.86,4.86,0,0,1,1.54.18,15.28,15.28,0,0,1,0,7,15.93,15.93,0,0,1-7.29,10.33,30.92,30.92,0,0,1-5.29,2.28,32.92,32.92,0,0,0-5.5,2.39c-.87.51-1.78,1-2.66,1.43a28.07,28.07,0,0,0-5,3l-1.06.87C53.91,83.7,51.66,85.57,50,85.57Z"/><path class="cls-4" d="M31.07,25.93a5.69,5.69,0,0,1,.72,0,22.78,22.78,0,0,1,9.11,2.59,18.53,18.53,0,0,0,9,2.17l1.19,0a19.63,19.63,0,0,0,9.08-2.36,17.92,17.92,0,0,1,8.2-2.13h.37c2.37,0,5.22,1.3,5.88,3.72.09,1.24-.6,2.26-1.4,3.44a15.74,15.74,0,0,0-1.32,2.21A16.31,16.31,0,0,0,70.9,47a11.87,11.87,0,0,0,9,8,8.56,8.56,0,0,0,1.13.06,7.8,7.8,0,0,1,1.13.08,14.78,14.78,0,0,1,0,6.45,15.47,15.47,0,0,1-7.06,10,31.33,31.33,0,0,1-5.21,2.24,32.63,32.63,0,0,0-5.58,2.43c-.86.5-1.76,1-2.64,1.42a28.16,28.16,0,0,0-5.05,3.07c-.35.28-.71.57-1.07.88-1.82,1.51-4.1,3.4-5.6,3.4s-3.86-2-5.76-3.54l-.91-.74a28.59,28.59,0,0,0-5.06-3.07c-.87-.45-1.78-.92-2.63-1.42A32.24,32.24,0,0,0,30,73.88a30.89,30.89,0,0,1-5.2-2.25,15.55,15.55,0,0,1-7.09-16.36A6.17,6.17,0,0,1,19,55.06l.7-.08a11,11,0,0,0,8.58-7.86,16.46,16.46,0,0,0-1.19-11.54,20.51,20.51,0,0,0-1.11-2c-.79-1.31-1.47-2.44-1.38-3.77.89-2.64,4-3.85,6.5-3.85m0-1c-3.19,0-6.54,1.64-7.49,4.65C23.34,32,25.13,33.76,26.16,36a15.6,15.6,0,0,1,1.13,10.85c-1.07,3.56-4.08,6.63-7.76,7.15a7.25,7.25,0,0,0-2.64.56,16.52,16.52,0,0,0,7.43,17.94c3.39,2,7.41,2.68,10.79,4.67,2.54,1.5,5.28,2.54,7.57,4.41s5.19,4.5,7.3,4.5,5-2.65,7.3-4.5,5-2.91,7.57-4.41c3.37-2,7.39-2.68,10.78-4.67a16.38,16.38,0,0,0,7.53-10.65A15.64,15.64,0,0,0,83,54.42c-.79-.46-2.05-.25-3-.38a10.81,10.81,0,0,1-8.22-7.32,15.23,15.23,0,0,1,1-10.73c1-2.23,3-3.79,2.8-6.24-.72-2.87-3.89-4.55-6.88-4.55h-.42a19.3,19.3,0,0,0-8.63,2.25,18.79,18.79,0,0,1-8.64,2.24q-.57,0-1.14,0a17.64,17.64,0,0,1-8.53-2.05A23.85,23.85,0,0,0,31.88,25c-.27,0-.54,0-.81,0Z"/><path class="cls-2" d="M21,59.8h.34"/><path class="cls-2" d="M78.31,59.8c.26,0,.53,0,.8,0"/><path class="cls-2" d="M33.69,33.58a.71.71,0,0,0,.45.09.86.86,0,0,0,.5-.44,7.66,7.66,0,0,0,.74-1.49,3,3,0,0,1-1.37,3,2.3,2.3,0,0,1-.8.31,2.26,2.26,0,0,1-1.82-.56,3.49,3.49,0,0,1-1-1.67,2.68,2.68,0,0,1,0-1.68c.4-1,1.85-1.32,2.24-.15C33,32,32.42,33,33.69,33.58Z"/><path class="cls-2" d="M66.18,31.71a.74.74,0,0,0-.25-.39.86.86,0,0,0-.67,0,7.81,7.81,0,0,0-1.57.52,3,3,0,0,1,3.06-1.13,2.25,2.25,0,0,1,.79.35,2.29,2.29,0,0,1,.89,1.69A3.46,3.46,0,0,1,68,34.59a2.61,2.61,0,0,1-1.19,1.18c-1,.42-2.25-.37-1.7-1.47C65.55,33.36,66.63,33.05,66.18,31.71Z"/><path class="cls-2" d="M61.25,53.36a.71.71,0,0,0,.45.09.83.83,0,0,0,.5-.44,7.58,7.58,0,0,0,.74-1.48,3,3,0,0,1-1.37,3,2.42,2.42,0,0,1-.8.31A2.31,2.31,0,0,1,59,54.24a3.46,3.46,0,0,1-1-1.66,2.68,2.68,0,0,1,0-1.68c.4-1,1.85-1.33,2.24-.16C60.53,51.74,60,52.73,61.25,53.36Z"/><path class="cls-2" d="M35.16,42.61a.3.3,0,0,0,.21-.08c.08-.08.06-.22.14-.3s.44.08.44.32-.14.46-.08.69a.4.4,0,0,0,.53-.1,1.06,1.06,0,0,0,.18-.55,1.83,1.83,0,0,0,0-.9.71.71,0,0,0-.67-.51c-.27,0-.51.27-.79.24s-.51-.43-.54-.78C34.44,39.4,33,39,33,40.39A2.1,2.1,0,0,0,35.16,42.61Z"/><path class="cls-2" d="M47.75,67a.31.31,0,0,0,.21-.09c.08-.08.07-.21.14-.3s.45.08.44.32-.13.47-.07.7a.39.39,0,0,0,.52-.11,1.13,1.13,0,0,0,.19-.55,2,2,0,0,0,0-.9.68.68,0,0,0-.67-.5c-.27,0-.51.26-.79.24s-.51-.44-.54-.78c-.12-1.24-1.59-1.68-1.56-.25A2.1,2.1,0,0,0,47.75,67Z"/><path class="cls-2" d="M69.17,50a.36.36,0,0,0,.21-.08c.08-.09.06-.22.14-.31s.44.09.44.32-.14.47-.08.7a.41.41,0,0,0,.53-.1,1.09,1.09,0,0,0,.18-.56,1.78,1.78,0,0,0,0-.89.7.7,0,0,0-.67-.51c-.27,0-.51.27-.79.24s-.51-.44-.54-.78c-.12-1.24-1.6-1.67-1.56-.25A2.1,2.1,0,0,0,69.17,50Z"/><path class="cls-2" d="M32.33,52.51a1.22,1.22,0,0,0-.18-.88L31.8,51a.37.37,0,0,1-.06-.25c.06-.21.37-.14.59-.12a.82.82,0,0,0,.79-.49,1,1,0,0,0-.14-.94,1.08,1.08,0,0,0-1.41-.23,1.27,1.27,0,0,1-.31.2c-.58.16-.84-.82-1.42-.64s-.51,1.64-.35,2.14C29.7,51.31,31.76,54.21,32.33,52.51Z"/><path class="cls-2" d="M49.28,43.87a1.23,1.23,0,0,0,.75.49l.73.23a.39.39,0,0,1,.21.14c.11.19-.15.36-.32.5a.82.82,0,0,0-.21.9.94.94,0,0,0,.76.57,1.06,1.06,0,0,0,1.15-.83,1.46,1.46,0,0,1,.09-.36c.29-.53,1.17,0,1.45-.55s-.8-1.52-1.26-1.77C52,42.85,48.48,42.26,49.28,43.87Z"/><path class="cls-2" d="M25.17,57.69a1.57,1.57,0,0,0,.1.28.54.54,0,0,0,.44.27.53.53,0,0,0,.47-.23c.1-.16.17-.39.35-.39a1.39,1.39,0,0,1-.63,1.76,1.71,1.71,0,0,1-1.22.06,1.8,1.8,0,0,1-1.25-2C23.8,56.27,24.89,56.77,25.17,57.69Z"/><path class="cls-2" d="M56.35,65.35a1.57,1.57,0,0,0,.1.28.53.53,0,0,0,.44.27.54.54,0,0,0,.47-.23c.1-.16.16-.39.35-.39A1.39,1.39,0,0,1,57.08,67a1.66,1.66,0,0,1-1.22,0,1.77,1.77,0,0,1-1.25-2C55,63.93,56.07,64.43,56.35,65.35Z"/><path class="cls-2" d="M31.84,60.06c-.1.79.62,1.45,1.33,1.82a1.48,1.48,0,0,0,.81.22.55.55,0,0,0,.51-.57c0-.27-.32-.42-.55-.55s-.48-.39-.39-.64a.62.62,0,0,0,.8-.35.85.85,0,0,0-.25-.88,1.39,1.39,0,0,0-.9-.33.39.39,0,0,0-.26,0,.65.65,0,0,0-.16.17,1,1,0,0,1-1.36-.12,2.34,2.34,0,0,0-.37-.4.75.75,0,0,0-.79,0,1.18,1.18,0,0,0-.52.64.83.83,0,0,0,.09.85c.24.26.66.21,1,.18s.8,0,.93.36"/><path class="cls-2" d="M37.62,47.29a5,5,0,0,1,.43.48.62.62,0,0,0,.56.22c.36-.09.43-.62.77-.76a.54.54,0,0,1,.63.25.86.86,0,0,1,0,.72,2.23,2.23,0,0,1-.43.59,2.43,2.43,0,0,1-.73.59,1,1,0,0,1-.91,0,2.45,2.45,0,0,1-.61-.71,3.23,3.23,0,0,1-.48-.57C36.64,47.61,37.06,46.84,37.62,47.29Z"/><path class="cls-2" d="M61.45,42.27a6.42,6.42,0,0,1,.43.48.61.61,0,0,0,.57.22c.35-.09.43-.61.77-.75a.52.52,0,0,1,.62.25.84.84,0,0,1,0,.71,2.13,2.13,0,0,1-.43.6,2.29,2.29,0,0,1-.73.58,1,1,0,0,1-.91,0,2.47,2.47,0,0,1-.61-.71,2.9,2.9,0,0,1-.48-.57C60.47,42.59,60.89,41.83,61.45,42.27Z"/><path class="cls-2" d="M49.49,36.36a4.58,4.58,0,0,1-.64,0,.63.63,0,0,0-.56.25c-.19.31.13.74,0,1.08a.52.52,0,0,1-.62.26.87.87,0,0,1-.51-.5,2.22,2.22,0,0,1-.12-.72,2.41,2.41,0,0,1,.11-.93,1,1,0,0,1,.64-.64,2.44,2.44,0,0,1,.93.06,3.57,3.57,0,0,1,.74.07C50,35.44,50.2,36.28,49.49,36.36Z"/><path class="cls-2" d="M50.34,80.38a3.9,3.9,0,0,1-.42-.48.65.65,0,0,0-.57-.22c-.36.09-.43.62-.77.76a.53.53,0,0,1-.63-.26.8.8,0,0,1,0-.71,2,2,0,0,1,.42-.59,2.56,2.56,0,0,1,.73-.59,1,1,0,0,1,.91,0,2.45,2.45,0,0,1,.61.71,3.23,3.23,0,0,1,.48.57C51.32,80.06,50.9,80.83,50.34,80.38Z"/><path class="cls-2" d="M37.71,54.05a.7.7,0,0,0,.36.32.34.34,0,0,0,.41-.16c0-.07,0-.18.12-.18s.09,0,.11.09a1,1,0,0,1-.23,1,1,1,0,0,0-.21.33,1.52,1.52,0,0,1-.06.2.35.35,0,0,1-.49.06,1.8,1.8,0,0,1-.38-.4.53.53,0,0,0-.48-.22,2.5,2.5,0,0,1-.25.09c-.55,0-.42-1-.15-1.2a2,2,0,0,1,.6-.34C37.4,53.54,37.52,53.79,37.71,54.05Z"/><path class="cls-2" d="M50.6,54.49a.74.74,0,0,0,.36.32.34.34,0,0,0,.41-.16c0-.07.05-.18.12-.18s.09.05.11.09a1,1,0,0,1-.22,1,.91.91,0,0,0-.22.33,1.52,1.52,0,0,1-.06.2.35.35,0,0,1-.49.06,2.07,2.07,0,0,1-.38-.4.53.53,0,0,0-.48-.22,2.5,2.5,0,0,1-.25.09c-.55,0-.42-1-.15-1.2a2.11,2.11,0,0,1,.6-.34C50.3,54,50.42,54.23,50.6,54.49Z"/><path class="cls-2" d="M58,75.44a.74.74,0,0,0,.36.32.33.33,0,0,0,.41-.16c0-.07.05-.18.13-.18s.08,0,.1.09a1,1,0,0,1-.22,1,.91.91,0,0,0-.22.33.76.76,0,0,1-.06.2.34.34,0,0,1-.49.06,2.07,2.07,0,0,1-.38-.4.53.53,0,0,0-.48-.22,1.84,1.84,0,0,1-.25.09c-.55.06-.42-1-.15-1.2a2,2,0,0,1,.61-.34C57.73,74.93,57.85,75.18,58,75.44Z"/><path class="cls-2" d="M39.42,64.08a.8.8,0,0,0,.37.31.32.32,0,0,0,.41-.15c0-.08,0-.19.12-.19s.09,0,.11.1a1,1,0,0,1-.23,1,1.08,1.08,0,0,0-.21.33c0,.07,0,.14-.06.2a.35.35,0,0,1-.49.07,1.85,1.85,0,0,1-.38-.41.51.51,0,0,0-.49-.21c-.08,0-.15.08-.24.08-.55.06-.42-1-.15-1.19a1.64,1.64,0,0,1,.6-.34C39.12,63.56,39.24,63.82,39.42,64.08Z"/><path class="cls-2" d="M23.34,65.71a.88.88,0,0,0,.3.2.42.42,0,0,0,.19.06.31.31,0,0,0,.21-.14.7.7,0,0,0,.09-.24.33.33,0,0,1,0,.36.63.63,0,0,1-.29.24.94.94,0,0,1-.82,0,.55.55,0,0,1-.18-.19.78.78,0,0,1,0-.22.38.38,0,0,1,.08-.3c.06-.06.24-.12.31-.06S23.26,65.63,23.34,65.71Z"/><path class="cls-2" d="M65.89,73a1.27,1.27,0,0,0,.31.2.32.32,0,0,0,.19,0,.28.28,0,0,0,.21-.13,1,1,0,0,0,.09-.24.32.32,0,0,1,0,.35.67.67,0,0,1-.29.24.88.88,0,0,1-.82,0,.41.41,0,0,1-.18-.19.49.49,0,0,1,0-.21.38.38,0,0,1,.08-.31c.05,0,.24-.11.3-.06S65.82,72.91,65.89,73Z"/><path class="cls-2" d="M78.14,65.71a1,1,0,0,0,.31.2.42.42,0,0,0,.19.06.33.33,0,0,0,.21-.14,1,1,0,0,0,.09-.24.33.33,0,0,1,0,.36.66.66,0,0,1-.28.24.94.94,0,0,1-.82,0,.41.41,0,0,1-.18-.19.78.78,0,0,1,0-.22.39.39,0,0,1,.09-.3c.05-.06.23-.12.3-.06S78.07,65.63,78.14,65.71Z"/><path class="cls-2" d="M31.92,44.7a.85.85,0,0,0,.3.19.42.42,0,0,0,.19.06.28.28,0,0,0,.21-.13,1.06,1.06,0,0,0,.09-.25.33.33,0,0,1,0,.36.67.67,0,0,1-.29.24.88.88,0,0,1-.82,0,.55.55,0,0,1-.18-.19.51.51,0,0,1,0-.21.37.37,0,0,1,.08-.31c.05,0,.24-.11.31-.06S31.84,44.62,31.92,44.7Z"/><path class="cls-2" d="M41.55,37.24a1,1,0,0,0,.31.19.42.42,0,0,0,.19.06.28.28,0,0,0,.21-.13,1.06,1.06,0,0,0,.09-.25.33.33,0,0,1,0,.36.6.6,0,0,1-.28.24.88.88,0,0,1-.82,0,.41.41,0,0,1-.18-.19.78.78,0,0,1,0-.21.41.41,0,0,1,.09-.31c.05,0,.23-.11.3-.06S41.48,37.16,41.55,37.24Z"/><path class="cls-2" d="M69.79,55a.85.85,0,0,0,.3.19.42.42,0,0,0,.19.06.27.27,0,0,0,.21-.13.78.78,0,0,0,.09-.24.32.32,0,0,1,0,.35.57.57,0,0,1-.29.24.88.88,0,0,1-.82,0,.55.55,0,0,1-.18-.19.49.49,0,0,1,0-.21.42.42,0,0,1,.08-.31c.06,0,.24-.11.31-.06S69.71,54.94,69.79,55Z"/><path class="cls-2" d="M77.94,59.22a1,1,0,0,0,.31.2.42.42,0,0,0,.19.06.33.33,0,0,0,.21-.14,1,1,0,0,0,.09-.24.33.33,0,0,1,0,.36.75.75,0,0,1-.29.24.91.91,0,0,1-.82,0,.39.39,0,0,1-.18-.18.56.56,0,0,1,0-.22.35.35,0,0,1,.08-.3c0-.06.24-.12.3-.06S77.87,59.14,77.94,59.22Z"/><path class="cls-2" d="M49.05,62.44a1,1,0,0,0,.31.2.29.29,0,0,0,.18,0,.25.25,0,0,0,.21-.13,1,1,0,0,0,.1-.24.33.33,0,0,1,0,.36.58.58,0,0,1-.28.23.88.88,0,0,1-.82,0,.35.35,0,0,1-.18-.18.85.85,0,0,1,0-.22.42.42,0,0,1,.09-.31c.05,0,.23-.11.3,0S49,62.36,49.05,62.44Z"/><path class="cls-2" d="M20.11,57.54a.88.88,0,0,0,.3.2.42.42,0,0,0,.19.06.33.33,0,0,0,.21-.14.7.7,0,0,0,.09-.24.33.33,0,0,1,0,.36.68.68,0,0,1-.29.24.91.91,0,0,1-.82,0,.45.45,0,0,1-.18-.18.56.56,0,0,1,0-.22.38.38,0,0,1,.08-.3c.06-.06.24-.12.31-.06S20,57.46,20.11,57.54Z"/><path class="cls-2" d="M64.44,62.2a1.27,1.27,0,0,0,.31.2.31.31,0,0,0,.18.05.25.25,0,0,0,.21-.13,1,1,0,0,0,.1-.24.33.33,0,0,1,0,.36.58.58,0,0,1-.28.23.88.88,0,0,1-.82,0,.35.35,0,0,1-.18-.18.85.85,0,0,1,0-.22.42.42,0,0,1,.09-.31s.23-.11.3-.06S64.37,62.12,64.44,62.2Z"/><path class="cls-2" d="M28.36,70.08a.17.17,0,0,0,.15-.2.51.51,0,0,1-.22,0,.14.14,0,0,1-.06-.19s.09-.06.11-.1-.05-.13-.12-.16c-.25-.1-.46,0-.42.28A.57.57,0,0,0,28.36,70.08Z"/><path class="cls-2" d="M73.22,69.71c.09,0,.18-.12.15-.21a.4.4,0,0,1-.22,0,.15.15,0,0,1-.05-.2s.08-.05.1-.1,0-.13-.12-.16c-.24-.1-.45,0-.42.29A.59.59,0,0,0,73.22,69.71Z"/><path class="cls-2" d="M48.73,48.83c.1,0,.19-.12.16-.21a.4.4,0,0,1-.22,0,.15.15,0,0,1-.06-.2s.09-.05.11-.1,0-.13-.12-.16c-.25-.1-.46,0-.42.29A.58.58,0,0,0,48.73,48.83Z"/><path class="cls-2" d="M65.49,46.64c.1,0,.19-.11.15-.2a.5.5,0,0,1-.21,0,.14.14,0,0,1-.06-.19s.09-.06.11-.1,0-.13-.12-.16c-.25-.1-.46,0-.42.28A.56.56,0,0,0,65.49,46.64Z"/><path class="cls-2" d="M71.49,60.18c.09,0,.18-.12.15-.21a.33.33,0,0,1-.22,0,.14.14,0,0,1,0-.19s.08,0,.1-.1,0-.13-.12-.16c-.24-.1-.45,0-.42.28A.59.59,0,0,0,71.49,60.18Z"/><path class="cls-2" d="M51.48,39.25c.1,0,.19-.12.15-.21a.38.38,0,0,1-.21,0,.15.15,0,0,1-.06-.2s.09,0,.11-.1,0-.13-.12-.16c-.25-.1-.46,0-.42.29A.58.58,0,0,0,51.48,39.25Z"/><path class="cls-2" d="M61.94,39.25c.09,0,.18-.12.15-.21a.4.4,0,0,1-.22,0,.14.14,0,0,1,0-.2s.08,0,.1-.1-.05-.13-.12-.16c-.25-.1-.46,0-.42.29A.59.59,0,0,0,61.94,39.25Z"/><path class="cls-2" d="M57.66,49.2a.17.17,0,0,0,.15-.2.51.51,0,0,1-.22,0,.14.14,0,0,1-.05-.19s.08-.06.1-.1,0-.13-.11-.16c-.25-.1-.46,0-.43.28A.57.57,0,0,0,57.66,49.2Z"/><path class="cls-2" d="M37.05,74.85a.35.35,0,0,0,.32-.31c0-.18-.16-.31-.32-.4a.8.8,0,0,1-.41-.33c-.09-.23.08-.5,0-.74a.51.51,0,0,0-.34-.33,1.57,1.57,0,0,0-.49-.08,1.38,1.38,0,0,0-.64.07c-.8.37.15.86.44,1.11S36.42,74.93,37.05,74.85Z"/><path class="cls-5" d="M15.16,50.7c-1.48-2.8-2.92-6.87-1.9-11.06a13.36,13.36,0,0,1,4.67-7.32,5.59,5.59,0,0,0,0,2,13.51,13.51,0,0,0,.86,2.77c.12.29.23.57.34.86a12.53,12.53,0,0,1,.53,7.48A8.29,8.29,0,0,1,15.16,50.7Z"/><path class="cls-5" d="M17.35,33.48a8.21,8.21,0,0,0,.09,1,13.92,13.92,0,0,0,.9,2.89c.11.28.22.56.32.84a12.13,12.13,0,0,1,.53,7.17A7.8,7.8,0,0,1,15.38,50c-1.36-2.7-2.57-6.45-1.63-10.28a13,13,0,0,1,3.6-6.28m1.86-2.6a13.48,13.48,0,0,0-6.43,8.64c-1,4,.13,8.15,2.15,11.81a8.7,8.7,0,0,0,5.23-5.73,13.2,13.2,0,0,0-.55-7.78,19.61,19.61,0,0,1-1.18-3.54,3.75,3.75,0,0,1,.78-3.4Z"/><path class="cls-6" d="M17.14,53.88c-.54-.76-1.05-1.53-1.49-2.3a9.24,9.24,0,0,0,5-5.85,13.55,13.55,0,0,0-.56-8.08c-.11-.3-.23-.59-.35-.89a12,12,0,0,1-.8-2.56,3.26,3.26,0,0,1,.59-2.93,10.61,10.61,0,0,1,3.54-1.13,8.57,8.57,0,0,0,1.6,4.18,18,18,0,0,1,1,1.88,15,15,0,0,1,1.11,10.49,9.48,9.48,0,0,1-7.35,6.81l-.65.07A7.44,7.44,0,0,0,17.14,53.88Z"/><path class="cls-7" d="M22.6,30.72a9.91,9.91,0,0,0,1.64,3.86,20.28,20.28,0,0,1,1,1.83,14.48,14.48,0,0,1,1.08,10.14A9,9,0,0,1,19.39,53l-.62.07a9.43,9.43,0,0,0-1.43.23c-.35-.5-.68-1-1-1.51a9.77,9.77,0,0,0,4.77-5.93,14,14,0,0,0-.58-8.39c-.11-.3-.22-.59-.34-.89a12.34,12.34,0,0,1-.78-2.47,3,3,0,0,1,.41-2.43,10.13,10.13,0,0,1,2.77-1m1-1.14a11,11,0,0,0-4.36,1.29h0a3.75,3.75,0,0,0-.78,3.4,19.61,19.61,0,0,0,1.18,3.54,13.2,13.2,0,0,1,.55,7.78,8.7,8.7,0,0,1-5.23,5.73,30.66,30.66,0,0,0,2,3.09.59.59,0,0,0,0,.13A7.25,7.25,0,0,1,19.53,54c3.68-.52,6.69-3.6,7.76-7.15A15.6,15.6,0,0,0,26.16,36c-1-2.24-2.82-4-2.58-6.41Z"/><path class="cls-6" d="M82.87,53.8a5.92,5.92,0,0,0-1.77-.21,7.08,7.08,0,0,1-.95-.05,10.25,10.25,0,0,1-7.81-7,14.77,14.77,0,0,1,.94-10.38,13.94,13.94,0,0,1,1.2-2,7.46,7.46,0,0,0,1.65-3.9,11.06,11.06,0,0,1,3.25,1A3.49,3.49,0,0,1,80,34.2a11.74,11.74,0,0,1-.81,2.57l-.34.87a13.43,13.43,0,0,0-.56,8.09c.69,2.54,3.47,4.83,5.94,5.86A21,21,0,0,1,82.87,53.8Z"/><path class="cls-7" d="M76.59,30.88a10.56,10.56,0,0,1,2.48.8,3.08,3.08,0,0,1,.45,2.44,12.46,12.46,0,0,1-.78,2.46c-.12.3-.24.59-.35.9a13.82,13.82,0,0,0-.57,8.38c.69,2.55,3.24,4.79,5.72,6-.27.46-.56.93-.88,1.39a8.32,8.32,0,0,0-1.55-.13,7.85,7.85,0,0,1-.89,0,9.88,9.88,0,0,1-7.4-6.61,14.29,14.29,0,0,1,.91-10,14.1,14.1,0,0,1,1.16-1.93,8.81,8.81,0,0,0,1.7-3.6m-1-1.13c.24,2.45-1.76,4-2.8,6.24a15.22,15.22,0,0,0-1,10.73A10.83,10.83,0,0,0,80.08,54c.91.13,2.17-.08,3,.38a20.45,20.45,0,0,0,1.89-3.09c-2.48-.88-5.46-3.19-6.15-5.73a13,13,0,0,1,.55-7.78,19.61,19.61,0,0,0,1.18-3.54,3.85,3.85,0,0,0-.84-3.42,11.08,11.08,0,0,0-4-1.11Z"/><path class="cls-5" d="M84.68,50.69c-2.25-.92-4.8-3-5.41-5.23A12.53,12.53,0,0,1,79.8,38l.33-.86A12.85,12.85,0,0,0,81,34.35a5.5,5.5,0,0,0,0-2.15,12.86,12.86,0,0,1,5,7.44A16.51,16.51,0,0,1,84.68,50.69Z"/><path class="cls-5" d="M81.59,33.33a12.5,12.5,0,0,1,3.85,6.43,15.93,15.93,0,0,1-1,10.28c-2-1-4.17-2.82-4.68-4.71a12.13,12.13,0,0,1,.52-7.17l.33-.84a13.92,13.92,0,0,0,.9-2.89,7.09,7.09,0,0,0,.09-1.1m-1.92-2.47a3.85,3.85,0,0,1,.84,3.42,19.61,19.61,0,0,1-1.18,3.54,13,13,0,0,0-.55,7.78c.69,2.54,3.67,4.85,6.15,5.73a17.21,17.21,0,0,0,1.48-11.81,13,13,0,0,0-6.74-8.66Z"/><path class="cls-8" d="M50.06,73.58a34.54,34.54,0,0,1-7.91-.92,21.93,21.93,0,0,1-10.5-5.89,51.8,51.8,0,0,0,37.78-.38,17,17,0,0,1-5.82,4.23A31.8,31.8,0,0,1,50.06,73.58Z"/><path class="cls-5" d="M67.39,67.69a18.73,18.73,0,0,1-4,2.48,31.3,31.3,0,0,1-13.34,2.91,33.66,33.66,0,0,1-7.8-.91,21.81,21.81,0,0,1-8.43-4.1,52,52,0,0,0,16.22,2.58,51.84,51.84,0,0,0,17.34-3m3.46-2.42-1.37.56a51.31,51.31,0,0,1-39.55-.29A21.81,21.81,0,0,0,42,73.15a35,35,0,0,0,8,.93,32.19,32.19,0,0,0,13.76-3,16,16,0,0,0,7-5.81Z"/><path class="cls-5" d="M43.79,58.36C43,57.23,41.7,56.75,41,57.3s-.67,1.88.14,3,2.09,1.61,2.83,1.06S44.61,59.49,43.79,58.36Z"/><path class="cls-5" d="M56.8,57.3c-.74-.55-2-.07-2.82,1.06s-.89,2.48-.15,3,2,.07,2.83-1.06S57.54,57.83,56.8,57.3Z"/><path class="cls-9" d="M32.39,67s-8.52-5.22-14.06-3.36"/><path class="cls-9" d="M67.86,67.13s8.51-5.22,14.06-3.36"/></g></g></g></svg>