<svg xmlns="http://www.w3.org/2000/svg" viewBox="0 0 100 100"><defs><style>.cls-1{fill:#416b49;}.cls-2{fill:#f5f5f5;}.cls-3{fill:#f4f4f4;}.cls-4{fill:#a4c400;}.cls-5{fill:#9aaf05;}.cls-6{fill:#3f51b5;}.cls-7{fill:#6bb516;}.cls-8{fill:#5a9e16;}.cls-9{fill:#ffdc00;stroke:#eac306;stroke-linecap:round;stroke-linejoin:round;}.cls-10{fill:#182968;}.cls-11{fill:#eac306;}</style></defs><title>06-chameleon</title><g id="Layer_2" data-name="Layer 2"><g id="Layer_2-2" data-name="Layer 2"><g id="_06-chameleon" data-name="06-chameleon"><circle class="cls-1" cx="50" cy="50" r="50"/><path class="cls-2" d="M28.45,51.21a8.67,8.67,0,0,1-2.84-.46A11.76,11.76,0,0,1,23.84,50a16.3,16.3,0,0,1-3.68-2.66,13.4,13.4,0,0,1-3.76-5.51A11.39,11.39,0,0,1,20,30.14a15.16,15.16,0,0,1,9.19-3.53l.93,0a17.09,17.09,0,0,1,1.89.1A30,30,0,0,1,34.8,38.9a25.56,25.56,0,0,1-3.1,11.88A14.33,14.33,0,0,1,28.45,51.21Z"/><path class="cls-3" d="M30.1,27.09c.52,0,1,0,1.56.07A29.48,29.48,0,0,1,34.3,38.9a25,25,0,0,1-2.93,11.44,13.23,13.23,0,0,1-2.92.37,8.22,8.22,0,0,1-2.68-.43,11.3,11.3,0,0,1-1.7-.73A15.81,15.81,0,0,1,20.5,47a13.11,13.11,0,0,1-3.63-5.3,10.9,10.9,0,0,1,3.44-11.17,14.74,14.74,0,0,1,8.88-3.4l.91,0m0-1-1,0a15.65,15.65,0,0,0-9.49,3.65c-3.4,3-5.13,7.94-3.73,12.23a14.1,14.1,0,0,0,3.9,5.72,16.46,16.46,0,0,0,3.79,2.73,13.59,13.59,0,0,0,1.84.79,9.41,9.41,0,0,0,3,.48A15.44,15.44,0,0,0,32,51.22,25.64,25.64,0,0,0,35.3,38.9a30.11,30.11,0,0,0-3-12.68,18.36,18.36,0,0,0-2.22-.13Z"/><path class="cls-2" d="M70.09,51.21a14.33,14.33,0,0,1-3.25-.43,25.6,25.6,0,0,1-3.1-11.88,30,30,0,0,1,2.81-12.21,17.36,17.36,0,0,1,1.89-.1c.39,0,.79,0,1.18,0a15,15,0,0,1,8.94,3.5,11.38,11.38,0,0,1,3.57,11.7,13.34,13.34,0,0,1-3.75,5.51,16.46,16.46,0,0,1-3.52,2.57,11.73,11.73,0,0,1-1.94.84A8.61,8.61,0,0,1,70.09,51.21Z"/><path class="cls-3" d="M68.43,27.09h0c.39,0,.78,0,1.16,0a14.54,14.54,0,0,1,8.64,3.38,10.89,10.89,0,0,1,3.43,11.17A13.11,13.11,0,0,1,78,47a16.17,16.17,0,0,1-3.42,2.49,11.65,11.65,0,0,1-1.86.81,8.16,8.16,0,0,1-2.67.43,13.23,13.23,0,0,1-2.92-.37A25,25,0,0,1,64.24,38.9a29.48,29.48,0,0,1,2.64-11.74c.52-.05,1-.07,1.55-.07m0-1a18,18,0,0,0-2.2.13,30,30,0,0,0-3,12.68,25.64,25.64,0,0,0,3.28,12.32,15.44,15.44,0,0,0,3.57.49,9.4,9.4,0,0,0,3-.48,12,12,0,0,0,2-.88,17,17,0,0,0,3.63-2.64A14,14,0,0,0,82.61,42c1.4-4.29-.32-9.25-3.72-12.23a15.41,15.41,0,0,0-9.23-3.63c-.41,0-.82,0-1.23,0Z"/><path class="cls-4" d="M51,82.68c-1.31,0-2.66-.06-4.13-.18-7.08-.6-12.3-2.48-15.95-5.74a21.93,21.93,0,0,1-6.45-12A46.9,46.9,0,0,1,24,51.21a12.48,12.48,0,0,0,1.25.49,9.82,9.82,0,0,0,3.16.51,15.7,15.7,0,0,0,3.69-.5.56.56,0,0,0,.31-.23A26,26,0,0,0,35.8,38.9a30.33,30.33,0,0,0-3-12.91.5.5,0,0,0-.39-.27,19.07,19.07,0,0,0-2.27-.13h-.39a3.31,3.31,0,0,1,1.21-2,6.34,6.34,0,0,1,2.69-.71l.5,0c3,1,4.71,4.17,5.29,6.61a29.36,29.36,0,0,1,.46,7.14c0,.69,0,1.38,0,2.07,0,2.8.25,6.39,2.17,9.26a9.28,9.28,0,0,0,7.49,4.13h.66A9.54,9.54,0,0,0,57.74,48c1.9-2.85,2.16-6.44,2.17-9.26,0-.69,0-1.38,0-2.07a29.4,29.4,0,0,1,.46-7.14c.65-2.77,1.67-5.71,4.34-6.61l.45,0a6.3,6.3,0,0,1,2.74.71,3.35,3.35,0,0,1,1.22,2h-.66a19.32,19.32,0,0,0-2.27.13.5.5,0,0,0-.39.27,30.33,30.33,0,0,0-3,12.91A25.81,25.81,0,0,0,66.1,51.48a.57.57,0,0,0,.3.23,15.7,15.7,0,0,0,3.69.5,9.72,9.72,0,0,0,3.15-.51,12.89,12.89,0,0,0,1.51-.61c1.08,4.92,1.64,11.84-1.3,18a23,23,0,0,1-13.7,12.35A29.05,29.05,0,0,1,51,82.68Z"/><path class="cls-5" d="M64.76,23.38l.39,0a5.7,5.7,0,0,1,2.47.64,2.4,2.4,0,0,1,.79,1,19.85,19.85,0,0,0-2.3.14,1,1,0,0,0-.77.52,31,31,0,0,0-3.1,13.15,26.5,26.5,0,0,0,3.43,12.85,1,1,0,0,0,.62.44,16.07,16.07,0,0,0,3.8.52,10.48,10.48,0,0,0,3.31-.53c.33-.11.66-.24,1-.38,1,4.8,1.37,11.3-1.39,17.11A22.5,22.5,0,0,1,59.6,81,28.69,28.69,0,0,1,51,82.18c-1.3,0-2.63-.06-4.09-.18-7-.59-12.09-2.42-15.66-5.62a21.4,21.4,0,0,1-6.29-11.67,45,45,0,0,1-.44-12.77l.65.24a10.49,10.49,0,0,0,3.32.53,16.07,16.07,0,0,0,3.8-.52,1,1,0,0,0,.62-.44A26.5,26.5,0,0,0,36.3,38.9a30.78,30.78,0,0,0-3.1-13.15,1,1,0,0,0-.77-.52,19.58,19.58,0,0,0-2-.14,2.45,2.45,0,0,1,.77-1,5.85,5.85,0,0,1,2.48-.64l.39,0c2.73.95,4.33,3.92,4.87,6.22a28.38,28.38,0,0,1,.45,7c0,.7,0,1.39,0,2.08,0,2.87.26,6.55,2.25,9.54a9.84,9.84,0,0,0,7.92,4.35h.65a10,10,0,0,0,8-4.35c2-3,2.25-6.65,2.26-9.54,0-.69,0-1.38,0-2.08a28,28,0,0,1,.45-7c.63-2.73,1.55-5.36,3.92-6.21m-.13-1h0c-2.95.93-4.06,4-4.77,7s-.44,6.2-.45,9.32-.35,6.39-2.09,9a9,9,0,0,1-7.16,3.91h-.65a8.89,8.89,0,0,1-7.09-3.91c-1.73-2.59-2.08-5.86-2.08-9s.26-6.28-.45-9.32-2.76-6.07-5.72-7l-.6,0a6.78,6.78,0,0,0-2.91.78,3.93,3.93,0,0,0-1.52,2.92l1,0a18.36,18.36,0,0,1,2.22.13,30.11,30.11,0,0,1,3,12.68A25.64,25.64,0,0,1,32,51.22a15.44,15.44,0,0,1-3.57.49,9.41,9.41,0,0,1-3-.48,13.59,13.59,0,0,1-1.84-.79,49.38,49.38,0,0,0,.33,14.47,22.32,22.32,0,0,0,6.61,12.22C34.92,81,41,82.5,46.79,83c1.38.12,2.77.19,4.17.19A30,30,0,0,0,59.9,82a23.6,23.6,0,0,0,14-12.61c2.79-5.88,2.64-12.84,1.19-19a12,12,0,0,1-2,.88,9.4,9.4,0,0,1-3,.48,15.44,15.44,0,0,1-3.57-.49A25.64,25.64,0,0,1,63.24,38.9a30,30,0,0,1,3-12.68,18,18,0,0,1,2.2-.13c.41,0,.82,0,1.23,0a3.88,3.88,0,0,0-1.52-2.94,6.7,6.7,0,0,0-2.9-.78l-.61,0Z"/><rect class="cls-6" x="48.78" y="68.23" width="1.79" height="14.04" rx="0.89"/><rect class="cls-6" x="40.22" y="69.17" width="6.02" height="1.79" rx="0.89" transform="translate(-36.88 51.09) rotate(-45)"/><rect class="cls-6" x="56.02" y="67.05" width="1.79" height="6.02" rx="0.89" transform="translate(-32.87 60.77) rotate(-45.01)"/><path class="cls-7" d="M49.86,51.07H49.5a8.38,8.38,0,0,1-6.66-3.69c-1.77-2.64-2-6-2-8.7,0-.69,0-1.37,0-2.06a30.07,30.07,0,0,0-.49-7.38,10.8,10.8,0,0,0-4.15-6.42h2.45c.57,0,1.14,0,1.7,0a10.37,10.37,0,0,0,6.14-1.9,10.52,10.52,0,0,0,3.22-4.83c.42,1.88,1.15,3.8,2.56,4.83a10.35,10.35,0,0,0,6.13,1.9c.57,0,1.14,0,1.71,0h2.55c-1.9,1.47-2.74,4-3.31,6.42a29.63,29.63,0,0,0-.48,7.39c0,.68,0,1.37,0,2,0,2.67-.25,6.08-2,8.7a8.49,8.49,0,0,1-6.75,3.69Z"/><path class="cls-8" d="M49.63,17.63A7.23,7.23,0,0,0,52,21.32a11,11,0,0,0,6.4,2c.52,0,1.06,0,1.73,0h1.28a13.5,13.5,0,0,0-2.52,5.8,29.7,29.7,0,0,0-.5,7.5c0,.69,0,1.37,0,2,0,2.6-.24,5.91-1.92,8.42a8,8,0,0,1-6.33,3.47h-.65a7.87,7.87,0,0,1-6.25-3.46c-1.7-2.54-1.92-5.84-1.92-8.43,0-.68,0-1.36,0-2a30.17,30.17,0,0,0-.5-7.5,11.85,11.85,0,0,0-3.22-5.8h1c.67,0,1.21,0,1.73,0a10.92,10.92,0,0,0,6.4-2,9.76,9.76,0,0,0,2.83-3.69m.2-4c-.3,2.41-1.78,5.56-3.62,6.89a9.84,9.84,0,0,1-5.86,1.8c-.56,0-1.12,0-1.68,0l-2.71,0c-.6,0-1.19,0-1.79,0,3,.93,5,4,5.72,7s.44,6.2.45,9.32.35,6.39,2.08,9a8.89,8.89,0,0,0,7.09,3.91h.65a9,9,0,0,0,7.16-3.91c1.74-2.59,2.08-5.86,2.09-9s-.26-6.28.45-9.32,1.82-6.07,4.77-7c-.6,0-1.19,0-1.79,0l-2.71,0c-.56,0-1.12,0-1.68,0a9.86,9.86,0,0,1-5.86-1.8c-1.83-1.33-2.46-4.48-2.76-6.89Z"/><path class="cls-9" d="M48.89,68.71c.68,0,1.37,0,2,0a18.28,18.28,0,0,0,5.72-.48,67.43,67.43,0,0,0,6.77-2.54,10.75,10.75,0,0,1,7.08-.51,28.6,28.6,0,0,0,3.37,1.36,4.59,4.59,0,0,0,5.4-5.67,5.83,5.83,0,0,0-2.86-3.44c-2.26-1.28-5.1-1.36-7.49-1.51a19.31,19.31,0,0,0-6.64.7c-2,.6-3.92,1.36-5.94,1.91a16.25,16.25,0,0,1-5.36.76,23.72,23.72,0,0,0-2.53,0,15.24,15.24,0,0,1-5-.77c-2-.55-3.94-1.31-5.94-1.91a19.28,19.28,0,0,0-6.63-.7c-2.4.15-5.23.23-7.5,1.51a5.81,5.81,0,0,0-2.85,3.44A4.59,4.59,0,0,0,26,66.54a27.92,27.92,0,0,0,3.37-1.36,10.75,10.75,0,0,1,7.08.51,66.7,66.7,0,0,0,6.78,2.54A18.11,18.11,0,0,0,48.89,68.71Z"/><circle class="cls-10" cx="26.37" cy="36.42" r="4.37"/><circle class="cls-6" cx="26.37" cy="36.42" r="2.18"/><circle class="cls-10" cx="72.58" cy="36.42" r="4.37"/><circle class="cls-6" cx="72.58" cy="36.42" r="2.18"/><path class="cls-6" d="M47.9,64.86c-.36,0-.73,0-1.09,0a26.94,26.94,0,0,1-7.49-2,25.44,25.44,0,0,0-7-1.92,8.32,8.32,0,0,0-5.69,1.44.88.88,0,0,1-1.15-.09h0a.9.9,0,0,1,.08-1.35,10.18,10.18,0,0,1,6.9-1.79,27.43,27.43,0,0,1,7.48,2,25.6,25.6,0,0,0,7,1.92,22.59,22.59,0,0,0,8.77-1.6L57.1,61a36.78,36.78,0,0,1,7.75-2.09,13,13,0,0,1,8.7,1.75A.9.9,0,0,1,73.74,62h0a.88.88,0,0,1-1.16.17,11.16,11.16,0,0,0-7.51-1.48,35.4,35.4,0,0,0-7.38,2l-1.41.48A26.15,26.15,0,0,1,47.9,64.86Z"/><path class="cls-11" d="M50.18,18.26l-.5,22.19-.5-22.19a.49.49,0,0,1,.49-.51.5.5,0,0,1,.51.48Z"/></g></g></g></svg>